<svg xmlns="http://www.w3.org/2000/svg" width="64" height="64" viewBox="0 0 64 64" fill="none"><circle cx="32" cy="32" r="32" fill="#DD3333"></circle><path d="M51.1625 30.5899C50.899 30.101 50.5212 30.4928 50.2542 30.5899C48.174 31.4739 46.2811 32.6076 45.0538 34.6115C44.5407 35.4505 43.9582 36.241 43.2614 37.2741C43.0571 36.3037 43.0928 35.298 43.3654 34.3446C43.7537 32.5001 45.0434 31.2243 46.1389 29.8098C46.8323 28.9084 47.6748 28.0763 48.018 26.849C45.3554 27.3171 39.0941 31.1793 37.6345 33.1658C37.1145 33.8592 36.9412 34.4243 37.6588 35.2078C38.1823 35.766 38.6816 36.7749 37.9015 37.4336C37.2081 38.0299 36.2304 37.7595 35.4746 37.2395C35.1895 37.0324 34.9561 36.7623 34.7925 36.4502C34.6289 36.1381 34.5397 35.7924 34.5316 35.4401C34.3583 33.6096 34.6183 31.8588 35.7069 30.3229C36.3102 29.4666 36.9689 28.6484 37.6553 27.8545C38.1268 27.3136 38.2031 26.901 37.7073 26.2909C36.1438 24.3736 35.1453 22.1305 34.3167 19.832C33.5413 17.5244 32.9023 15.1732 32.4029 12.7906C32.4307 12.4162 32.3059 12.0972 31.9314 12.0175C31.557 11.9377 31.3733 12.1354 31.3941 12.5167C31.2172 13.2344 31.0474 13.952 30.8636 14.6766C29.8859 18.9097 28.6101 23.0215 25.8782 26.5162C25.4171 27.1056 25.7325 27.4488 26.0827 27.8683C27.0361 29.0055 28.0485 30.108 28.6378 31.4982C29.2827 33.0271 29.5462 34.6184 29.0053 36.2167C28.8672 36.6613 28.5867 37.048 28.207 37.3174C27.8273 37.5868 27.3696 37.7239 26.9044 37.7075C26.4398 37.7075 25.8643 37.86 25.6251 37.2984C25.2784 36.4351 25.7221 35.7001 26.1624 34.9894C26.1841 34.9511 26.2151 34.9189 26.2526 34.8958C26.8593 34.5491 26.5993 34.0949 26.3705 33.6616C26.0206 33.0519 25.5569 32.5152 25.0045 32.0807C22.4528 29.9069 19.5406 28.319 16.4862 26.9738C16.3629 26.8922 16.2147 26.8565 16.0677 26.873C15.9207 26.8894 15.7841 26.957 15.6819 27.064C17.2593 30.3576 21.229 32.5764 20.4247 37.4232C18.4624 33.8938 16.1846 31.1619 12 30.2397C12.6067 30.9054 12.9881 31.3214 13.3625 31.7409C14.9712 33.5402 16.455 35.4366 17.3322 37.7075C18.0255 39.441 18.5074 41.32 17.9007 43.161C17.294 45.0019 17.4743 45.5532 19.395 46.0663C22.2725 46.8325 25.209 47.3178 28.1386 47.8379C30.8012 48.3129 30.8012 48.2955 31.3941 51.0309C31.3178 51.4504 31.3941 51.9393 31.8066 51.9947C32.3301 52.0641 32.1914 51.4296 32.3787 51.1245C32.4341 51.0309 32.3787 50.8749 32.3787 50.7466C32.485 50.4157 32.5536 50.0737 32.5832 49.7274C32.5624 48.4515 33.2489 48.1048 34.4242 47.9592C37.8146 47.5357 41.1733 46.8883 44.4783 46.0212C46.184 45.5809 46.4995 44.8598 45.7992 43.2268C45.6402 42.9174 45.5525 42.5762 45.5426 42.2284C45.6085 40.3389 45.8893 38.5083 46.7699 36.7887C47.8365 34.7794 49.1798 32.9297 50.7604 31.2936C50.9372 31.0926 51.3602 30.947 51.1625 30.5899Z" fill="#FBFAF8"></path></svg>